Coordinates
version=1
nRows=17
nColumns=36
inDegrees=yes

Units are S.I. units (second, meters, Newtons, ...)
If the header above contains a line with 'inDegrees', this indicates whether rotational values are in degrees (yes) or radians (no).

endheader
time	pelvis_tilt	pelvis_list	pelvis_rotation	pelvis_tx	pelvis_ty	pelvis_tz	hip_flexion_r	hip_adduction_r	hip_rotation_r	knee_angle_r	knee_angle_r_beta	ankle_angle_r	subtalar_angle_r	mtp_angle_r	hip_flexion_l	hip_adduction_l	hip_rotation_l	knee_angle_l	knee_angle_l_beta	ankle_angle_l	subtalar_angle_l	mtp_angle_l	lumbar_extension	lumbar_bending	lumbar_rotation	arm_flex_r	arm_add_r	arm_rot_r	elbow_flex_r	pro_sup_r	arm_flex_l	arm_add_l	arm_rot_l	elbow_flex_l	pro_sup_l
      0.66000000	     -0.23462623	      1.42100296	     -3.75261739	      0.81293182	      0.94267138	     -0.15979264	     -8.47084026	     -1.75524766	      2.18451096	     35.94606942	      0.62737726	      0.62754997	      9.60767894	     -6.98664920	     21.09744370	      3.18183587	      1.15504804	     17.50216847	      0.30547047	      0.73080442	     -2.30168540	     -6.98664920	     -5.10264946	     -3.94411768	     12.79629779	      7.85507794	     -6.65235971	      3.67372062	     41.89453722	    108.47337006	    -11.70595349	    -12.85843419	     21.61450150	     24.14261436	    108.32604368
      0.67000000	     -0.07561469	      1.90949940	     -3.81157982	      0.82525452	      0.94300736	     -0.16129644	     -6.67228995	     -2.79449986	      1.49861978	     40.00435944	      0.69820779	     -1.87265317	      9.53485307	     -6.99316063	     20.64240027	      3.87972117	      1.16333451	     18.58290084	      0.32433280	      1.72331606	     -2.87864918	     -6.99316063	     -5.29916121	     -4.59720502	     12.48074754	      7.78736693	     -6.45957433	      3.77452968	     41.70599355	    108.54175969	    -11.57281220	    -12.97572749	     21.53824598	     24.43519142	    108.36986083
      0.68000000	     -0.00661140	      2.36499427	     -3.85294015	      0.83721789	      0.94315112	     -0.16274542	     -4.68004202	     -3.73260442	      1.08062838	     44.06604401	      0.76909756	     -4.08767059	      9.06266231	     -7.00168622	     20.23238334	      4.52258928	      1.09780989	     19.50420747	      0.34041264	      2.71203197	     -3.22516989	     -7.00168622	     -5.41924492	     -5.18750073	     12.11100764	      7.76543514	     -6.30648109	      3.91691467	     41.47602669	    108.61972891	    -11.42929178	    -13.12523184	     21.40244965	     24.86655205	    108.44125709
      0.69000000	      0.14884485	      2.85776225	     -3.91339642	      0.84899998	      0.94341393	     -0.16407380	     -2.73575630	     -4.70155693	      0.78026338	     48.02323483	      0.83816357	     -5.67636206	      8.38242421	     -7.00841708	     19.62249084	      5.19175282	      0.91148968	     20.17698148	      0.35215476	      3.70306384	     -3.42343634	     -7.00841708	     -5.65701399	     -5.82821986	     11.71195021	      7.74588400	     -6.13967374	      4.07630504	     41.28335458	    108.67491384	    -11.18495812	    -13.24794254	     21.28644867	     25.25491183	    108.50986946
      0.70000000	      0.14449100	      3.20624386	     -3.94703882	      0.86041493	      0.94349833	     -0.16520969	     -0.58000709	     -5.35778840	      0.72706277	     51.84436669	      0.90485490	     -6.73286917	      7.01006125	     -7.02865879	     19.18701248	      5.64973973	      0.58349021	     20.82167034	      0.36340670	      4.81302240	     -3.18965860	     -7.02865879	     -5.75424320	     -6.30614961	     11.19253956	      7.83634643	     -6.01073602	      4.48384339	     40.90037735	    108.80686115	    -11.06433049	    -13.37287548	     20.79375652	     25.89384404	    108.68012551
      0.71000000	      0.15754744	      3.56937570	     -4.03435661	      0.87164761	      0.94370914	     -0.16631271	      1.59971783	     -6.00401310	      0.81194615	     55.48682079	      0.96842771	     -6.80380790	      5.87934150	     -7.04037789	     18.58801003	      6.16207722	      0.42986658	     21.16412495	      0.36938366	      5.67695577	     -3.16745726	     -7.04037789	     -5.84557921	     -6.77387403	     10.79953073	      7.81195362	     -5.92029567	      4.70443024	     40.63511118	    108.85591566	    -10.76642173	    -13.47369443	     20.61945735	     26.33283627	    108.79926573
      0.72000000	      0.22033767	      3.85960779	     -4.09622497	      0.88281946	      0.94422121	     -0.16734144	      3.68145095	     -6.52044286	      0.90039646	     58.78146138	      1.02593004	     -6.30194103	      4.66946350	     -7.04614690	     17.81780233	      6.61247262	      0.30549016	     21.26678391	      0.37117540	      6.49821149	     -3.21792741	     -7.04614690	     -6.00585324	     -7.18129425	     10.41158720	      7.72061580	     -5.80967186	      4.86478664	     40.40950134	    108.87402673	    -10.32812497	    -13.52203511	     20.56245734	     26.60066163	    108.86082228
      0.73000000	      0.15399651	      4.07087864	     -4.17327472	      0.89368442	      0.94470113	     -0.16826998	      5.92426300	     -6.81566226	      1.16623716	     61.79469948	      1.07852097	     -5.33546187	      3.22516441	     -7.05148752	     17.16162356	      6.96924437	      0.21067473	     21.30583891	      0.37185704	      7.26775533	     -3.22048542	     -7.05148752	     -6.02466751	     -7.43829971	     10.03422034	      7.65066276	     -5.79677123	      5.00753231	     40.13144768	    108.88226300	     -9.84578920	    -13.60292881	     20.52530235	     26.86535140	    108.91513370
      0.74000000	      0.04273240	      4.13621008	     -4.23551674	      0.90444294	      0.94540053	     -0.16907792	      8.14080044	     -6.83416740	      1.49717470	     64.36307863	      1.12334764	     -4.23140458	      1.77639574	     -7.05708532	     16.50225592	      7.16290411	      0.17226312	     21.25914876	      0.37104214	      7.95338752	     -3.15808158	     -7.05708532	     -5.96737336	     -7.54167116	      9.67572625	      7.53853214	     -5.77439479	      5.15565377	     39.81572121	    108.88330765	     -9.31444241	    -13.62866702	     20.50208333	     27.09146997	    108.96083032
      0.75000000	     -0.08516608	      4.10074820	     -4.26291758	      0.91515080	      0.94636449	     -0.16984801	     10.29295299	     -6.67139921	      1.81385426	     66.46631448	      1.16005603	     -3.17912840	      0.42346993	     -7.06262392	     15.78451151	      7.24692344	      0.17631862	     21.07938846	      0.36790473	      8.58753674	     -3.05912441	     -7.06262392	     -5.92476926	     -7.52621380	      9.32001458	      7.36361636	     -5.77904697	      5.27646350	     39.48402237	    108.87475700	     -8.72014771	    -13.58806885	     20.48723928	     27.25406054	    108.99109209
      0.76000000	     -0.19156073	      3.99298137	     -4.25605339	      0.92577646	      0.94758251	     -0.17054604	     12.31760610	     -6.35005150	      2.14945555	     68.10107693	      1.18858802	     -2.26930996	     -0.77991927	     -7.06781563	     14.97942437	      7.25306593	      0.24728369	     20.77357806	      0.36256733	      9.15943172	     -2.91644066	     -7.06781563	     -5.88580220	     -7.41911004	      8.94403466	      7.14507846	     -5.83320301	      5.34607860	     39.16161958	    108.85796299	     -8.06014330	    -13.55550991	     20.45764508	     27.35944173	    109.00395838
      0.77000000	     -0.26333307	      3.79621153	     -4.20268165	      0.93638035	      0.94911245	     -0.17117710	     14.17885811	     -5.87049899	      2.47076100	     69.25997392	      1.20881458	     -1.55585780	     -1.76161001	     -7.07234523	     14.07445781	      7.16738049	      0.38520871	     20.35975652	      0.35534479	      9.63645241	     -2.71726978	     -7.07234523	     -5.91053337	     -7.21031433	      8.53720861	      6.89258537	     -5.88699701	      5.37050906	     38.86840879	    108.83778949	     -7.35265191	    -13.48087604	     20.41291605	     27.45400806	    109.00677422
      0.78000000	     -0.31636307	      3.55880426	     -4.06908726	      0.94700517	      0.95081544	     -0.17181266	     15.88813081	     -5.33414969	      2.68384041	     69.97134403	      1.22123034	     -0.94966093	     -2.67001611	     -7.07784563	     13.10433351	      7.02954295	      0.52120411	     19.86175606	      0.34665304	     10.10549188	     -2.41360220	     -7.07784563	     -5.93286492	     -6.94887997	      8.10590302	      6.58768683	     -5.96301630	      5.35049613	     38.56415908	    108.81278456	     -6.59193069	    -13.39194774	     20.32950027	     27.53411196	    109.00011010
      0.79000000	     -0.27200030	      3.28036548	     -3.77954331	      0.95743208	      0.95275771	     -0.17249246	     17.37196109	     -4.78981661	      2.76714960	     70.26636128	      1.22637936	     -0.75073192	     -2.86314414	     -7.07867051	     12.13832174	      6.82457670	      0.47251688	     19.54095103	      0.34105393	     10.21691178	     -2.32979159	     -7.07867051	     -6.16886464	     -6.67231128	      7.44361064	      6.27688013	     -6.00250633	      5.33628993	     38.38761417	    108.80069238	     -5.76793015	    -13.35356399	     20.27245186	     27.76007593	    109.00866126
      0.80000000	     -0.32502086	      2.91033899	     -3.64596814	      0.96809411	      0.95469168	     -0.17290994	     18.84414677	     -3.99953406	      3.06498437	     70.17330308	      1.22475519	      0.06489006	     -3.61828662	     -7.08208209	     10.94026425	      6.53937366	      0.96027662	     18.60882731	      0.32478531	     10.63723975	     -1.79825479	     -7.08208209	     -6.13177176	     -6.24060558	      7.03905145	      5.88531557	     -6.09289381	      5.23733003	     38.06430981	    108.77290312	     -5.05004050	    -13.20783647	     20.09990483	     27.88370431	    108.99531313
      0.81000000	     -0.13858844	      2.55124557	     -3.30368581	      0.97860067	      0.95694606	     -0.17345639	     19.91829440	     -3.35126985	      3.06928482	     69.69923830	      1.21648119	      0.53613879	     -4.24146099	     -7.09430121	      9.64243723	      6.21847920	      1.08025420	     17.94725561	      0.31323870	     11.22748764	     -0.84181532	     -7.09430121	     -6.48970056	     -5.85667722	      6.37792568	      5.55248845	     -6.13684510	      4.95906733	     37.82780703	    108.73985699	     -4.20576261	    -13.06713649	     19.66502755	     28.05463270	    108.97256280
      0.82000000	     -0.19620726	      2.19666561	     -2.91952947	      0.98903479	      0.95877525	     -0.17398877	     21.22108850	     -2.70960756	      3.07608548	     68.98855197	      1.20407738	      0.99317987	     -4.41257604	     -7.09673632	      8.63570311	      5.89295545	      1.26797782	     17.27275333	      0.30146642	     11.33911927	     -0.49532690	     -7.09673632	     -6.49010537	     -5.46549457	      5.74314196	      5.09463853	     -6.19986153	      4.88706366	     37.57590825	    108.72112070	     -3.43272826	    -12.98604213	     19.53724209	     28.37114880	    108.98896923
